<svg xmlns="http://www.w3.org/2000/svg" viewBox="0 0 800 500" role="img" aria-label="Markdown 语法示意图">
  <defs>
    <linearGradient id="fs-bg" x1="0" y1="0" x2="1" y2="1">
      <stop offset="0" stop-color="#e9f5f3"/>
      <stop offset="1" stop-color="#e3eef8"/>
    </linearGradient>
    <filter id="fs-shadow" x="-20%" y="-20%" width="140%" height="150%">
      <feDropShadow dx="0" dy="8" stdDeviation="12" flood-color="#004d40" flood-opacity="0.12"/>
    </filter>
  </defs>

  <rect width="800" height="500" fill="url(#fs-bg)"/>

  <g filter="url(#fs-shadow)">
    <rect x="72" y="52" width="656" height="396" rx="16" fill="#fff"/>
  </g>

  <rect x="72" y="52" width="656" height="44" rx="16" fill="#f6f7f9"/>
  <rect x="72" y="80" width="656" height="16" fill="#f6f7f9"/>
  <circle cx="100" cy="74" r="5" fill="#ff5f57"/>
  <circle cx="118" cy="74" r="5" fill="#febc2e"/>
  <circle cx="136" cy="74" r="5" fill="#28c840"/>
  <rect x="168" y="68" width="180" height="12" rx="6" fill="#e4e6ea"/>

  <rect x="104" y="124" width="6" height="14" rx="3" fill="#26a69a"/>
  <rect x="124" y="124" width="196" height="14" rx="7" fill="#1a1a2e" opacity="0.7"/>
  <rect x="124" y="152" width="96" height="10" rx="5" fill="#1a1a2e" opacity="0.3"/>
  <rect x="124" y="176" width="300" height="10" rx="5" fill="#1a1a2e" opacity="0.18"/>
  <rect x="124" y="196" width="264" height="10" rx="5" fill="#1a1a2e" opacity="0.18"/>

  <rect x="104" y="232" width="6" height="14" rx="3" fill="#5c6bc0"/>
  <rect x="124" y="232" width="150" height="14" rx="7" fill="#1a1a2e" opacity="0.7"/>
  <rect x="124" y="260" width="340" height="10" rx="5" fill="#1a1a2e" opacity="0.18"/>
  <rect x="124" y="280" width="286" height="10" rx="5" fill="#1a1a2e" opacity="0.18"/>

  <rect x="140" y="316" width="392" height="92" rx="10" fill="#f4f6f8"/>
  <rect x="162" y="336" width="120" height="9" rx="4.5" fill="#26a69a" opacity="0.75"/>
  <rect x="162" y="356" width="300" height="9" rx="4.5" fill="#1a1a2e" opacity="0.2"/>
  <rect x="162" y="376" width="240" height="9" rx="4.5" fill="#1a1a2e" opacity="0.2"/>
</svg>
